<svg xmlns="http://www.w3.org/2000/svg" xmlns:xlink="http://www.w3.org/1999/xlink" viewBox="0 0 1690.06 1026.44"><defs><style>.cls-1{fill:none;}.cls-2{isolation:isolate;}.cls-19,.cls-20,.cls-22,.cls-23,.cls-3{opacity:0.5;}.cls-20,.cls-4{fill:#dcdcdb;}.cls-5{fill:#5ba59b;}.cls-6{fill:#6d6e70;}.cls-7{fill:#595a5c;}.cls-8{fill:#2c436d;}.cls-9{fill:#4674b7;}.cls-10{clip-path:url(#clip-path);}.cls-11,.cls-19{fill:#a6a7aa;}.cls-12{clip-path:url(#clip-path-2);}.cls-13{clip-path:url(#clip-path-3);}.cls-14{clip-path:url(#clip-path-4);}.cls-15{clip-path:url(#clip-path-5);}.cls-16{clip-path:url(#clip-path-6);}.cls-17{fill:#355c57;}.cls-18{fill:#6892b2;}.cls-21{fill:#fff;}.cls-22,.cls-25{fill:#e6e6e6;}.cls-23{mix-blend-mode:multiply;}.cls-24{clip-path:url(#clip-path-7);}.cls-26{clip-path:url(#clip-path-8);}.cls-27{clip-path:url(#clip-path-9);}.cls-28{clip-path:url(#clip-path-10);}.cls-29{clip-path:url(#clip-path-11);}.cls-30{clip-path:url(#clip-path-12);}.cls-31{clip-path:url(#clip-path-13);}.cls-32{clip-path:url(#clip-path-14);}</style><clipPath id="clip-path" transform="translate(-59.19 -48.21)"><rect class="cls-1" x="1483.39" y="804.52" width="23.67" height="47.34"/></clipPath><clipPath id="clip-path-2" transform="translate(-59.19 -48.21)"><rect class="cls-1" x="1405.08" y="393.61" width="19.45" height="38.9"/></clipPath><clipPath id="clip-path-3" transform="translate(-59.19 -48.21)"><rect class="cls-1" x="1368.85" y="603.55" width="13.31" height="26.63"/></clipPath><clipPath id="clip-path-4" transform="translate(-59.19 -48.21)"><rect class="cls-1" x="1559.78" y="421.72" width="12.99" height="25.97"/></clipPath><clipPath id="clip-path-5" transform="translate(-59.19 -48.21)"><rect class="cls-1" x="1546.05" y="548" width="29.45" height="58.9"/></clipPath><clipPath id="clip-path-6" transform="translate(-59.19 -48.21)"><rect class="cls-1" x="1303.34" y="482.01" width="21.82" height="43.65"/></clipPath><clipPath id="clip-path-7" transform="translate(-59.19 -48.21)"><rect class="cls-1" x="718.34" y="505.3" width="31.99" height="63.97"/></clipPath><clipPath id="clip-path-8" transform="translate(-59.19 -48.21)"><rect class="cls-1" x="219.12" y="170.41" width="31.99" height="63.97"/></clipPath><clipPath id="clip-path-9" transform="translate(-59.19 -48.21)"><rect class="cls-1" x="747.84" y="963.29" width="31.99" height="63.97"/></clipPath><clipPath id="clip-path-10" transform="translate(-59.19 -48.21)"><rect class="cls-1" x="130.48" y="822.3" width="14.45" height="28.89"/></clipPath><clipPath id="clip-path-11" transform="translate(-59.19 -48.21)"><rect class="cls-1" x="565.55" y="128.23" width="14.45" height="28.89"/></clipPath><clipPath id="clip-path-12" transform="translate(-59.19 -48.21)"><rect class="cls-1" x="318.37" y="360.89" width="14.45" height="28.89"/></clipPath><clipPath id="clip-path-13" transform="translate(-59.19 -48.21)"><rect class="cls-1" x="1687.39" y="522.15" width="14.45" height="28.89"/></clipPath><clipPath id="clip-path-14" transform="translate(-59.19 -48.21)"><rect class="cls-1" x="1687.4" y="113.68" width="14.45" height="28.89"/></clipPath></defs><title>formTaskBG</title><g class="cls-2"><g id="Objects"><g class="cls-3"><path class="cls-4" d="M1189.26,223.78H1084.63V140.9h104.63Zm-98.73-5.9h92.82V146.8h-92.82Z" transform="translate(-59.19 -48.21)"/></g><g class="cls-3"><path class="cls-4" d="M1225.55,128.5h-62.36V78.57h62.36Zm-56.46-5.9h50.56V84.47h-50.56Z" transform="translate(-59.19 -48.21)"/></g><g class="cls-3"><path class="cls-4" d="M154.87,422.31a86.67,86.67,0,1,1,61.29-25.39A86.12,86.12,0,0,1,154.87,422.31Zm0-167.45A80.78,80.78,0,1,0,212,278.52,80.24,80.24,0,0,0,154.87,254.86Z" transform="translate(-59.19 -48.21)"/></g><g class="cls-3"><path class="cls-4" d="M626.94,511.56a86.67,86.67,0,1,1,61.29-25.39A86.12,86.12,0,0,1,626.94,511.56Zm0-167.45a80.78,80.78,0,1,0,57.11,23.66A80.24,80.24,0,0,0,626.94,344.11Z" transform="translate(-59.19 -48.21)"/></g><g class="cls-3"><path class="cls-4" d="M1670.15,654.38a32.6,32.6,0,1,1,32.6-32.6A32.63,32.63,0,0,1,1670.15,654.38Zm0-59.29a26.7,26.7,0,1,0,26.7,26.69A26.72,26.72,0,0,0,1670.15,595.09Z" transform="translate(-59.19 -48.21)"/></g><g class="cls-3"><path class="cls-4" d="M1670.15,671.6A49.82,49.82,0,1,1,1720,621.78,49.88,49.88,0,0,1,1670.15,671.6Zm0-93.73a43.92,43.92,0,1,0,43.92,43.91A44,44,0,0,0,1670.15,577.87Z" transform="translate(-59.19 -48.21)"/></g><g class="cls-3"><path class="cls-4" d="M1430.37,1074.65a56.7,56.7,0,1,1,56.7-56.7A56.76,56.76,0,0,1,1430.37,1074.65Zm0-107.5a50.8,50.8,0,1,0,50.8,50.8A50.86,50.86,0,0,0,1430.37,967.15Z" transform="translate(-59.19 -48.21)"/></g><g class="cls-3"><path class="cls-4" d="M101.28,294a42.09,42.09,0,1,1,42.09-42.09A42.14,42.14,0,0,1,101.28,294Zm0-78.28a36.19,36.19,0,1,0,36.19,36.19A36.22,36.22,0,0,0,101.28,215.72Z" transform="translate(-59.19 -48.21)"/></g><g class="cls-3"><path class="cls-5" d="M1204.77,748.55l-4.76-2.81c2.45-4.16,4.85-8.43,7.13-12.69l4.88,2.61C1209.71,740,1207.27,744.32,1204.77,748.55Zm10.66-19.44-4.93-2.51c2.18-4.3,4.31-8.71,6.31-13.11l5,2.3C1219.81,720.26,1217.65,724.74,1215.43,729.11Zm9.41-20.08-5.09-2.19c1.91-4.44,3.75-9,5.47-13.48l5.17,2C1228.64,699.91,1226.78,704.52,1224.84,709Zm8.11-20.64-5.22-1.86c1.62-4.55,3.17-9.19,4.6-13.8l5.28,1.63C1236.16,679.05,1234.59,683.77,1233,688.39Zm6.77-21.12-5.32-1.52c1.33-4.64,2.58-9.37,3.71-14.07l5.38,1.3C1242.34,657.75,1241.07,662.56,1239.72,667.27Zm5.42-21.5-5.4-1.18c1-4.72,2-9.52,2.8-14.28l5.45,1C1247.15,636.09,1246.19,641,1245.14,645.77Zm4-21.81-5.47-.83c.72-4.77,1.36-9.63,1.88-14.43l5.5.6C1250.56,614.18,1249.92,619.11,1249.18,624Zm2.63-22-5.52-.48c.42-4.81.74-9.7,1-14.52l5.53.24C1252.56,592.08,1252.23,597.05,1251.81,601.94Zm1.2-22.15-5.53-.12c.06-2.5.09-5,.09-7.54,0-2.32,0-4.68-.08-7L1253,565c0,2.37.07,4.77.07,7.13C1253.1,574.68,1253.07,577.25,1253,579.79Zm-5.75-21.95c-.2-4.82-.51-9.7-.92-14.51l5.51-.47c.42,4.88.74,9.85.94,14.75Zm-1.62-21.75c-.51-4.8-1.14-9.66-1.86-14.43l5.47-.83c.73,4.86,1.37,9.79,1.89,14.67Zm-3-21.61c-.82-4.76-1.76-9.56-2.78-14.28l5.4-1.18c1,4.8,2,9.68,2.83,14.51Zm-4.4-21.38c-1.13-4.69-2.37-9.43-3.69-14.07l5.32-1.52c1.34,4.72,2.6,9.53,3.75,14.3Zm-5.76-21.05c-1.42-4.6-3-9.25-4.57-13.81l5.21-1.85c1.64,4.64,3.21,9.36,4.65,14Zm-7.08-20.64c-1.71-4.53-3.54-9.07-5.43-13.5l5.09-2.17c1.92,4.5,3.78,9.11,5.52,13.71ZM1217,431.25c-2-4.4-4.1-8.82-6.27-13.12l4.94-2.49c2.21,4.37,4.35,8.86,6.37,13.33Zm-9.62-19.58c-2.26-4.26-4.65-8.53-7.1-12.69l4.77-2.81c2.49,4.23,4.92,8.57,7.22,12.9Zm-10.85-18.93c-2.53-4.1-5.19-8.21-7.9-12.21l4.58-3.1c2.75,4.06,5.45,8.23,8,12.41Zm-12-18.18c-2.79-3.93-5.7-7.85-8.66-11.66l4.37-3.39c3,3.87,6,7.85,8.8,11.84Zm-13.16-17.33c-3-3.75-6.2-7.48-9.39-11.08l4.14-3.67c3.25,3.67,6.46,7.45,9.54,11.26Zm-14.25-16.46c-3.27-3.54-6.67-7.06-10.09-10.46l3.9-3.92c3.48,3.45,6.93,7,10.25,10.62Zm-15.29-15.52c-3.49-3.32-7.1-6.61-10.74-9.79l3.64-4.17c3.7,3.23,7.37,6.58,10.91,9.95Zm-16.26-14.51c-3.69-3.09-7.51-6.15-11.34-9.08l3.37-4.4c3.89,3,7.77,6.09,11.52,9.24ZM1108.4,297.3c-3.89-2.86-7.9-5.67-11.9-8.35l3.08-4.6c4.07,2.73,8.14,5.58,12.09,8.49Zm-18-12.33c-4.06-2.6-8.24-5.15-12.41-7.58l2.78-4.78c4.24,2.47,8.49,5.06,12.62,7.7Zm-18.73-11.16c-4.23-2.34-8.56-4.62-12.88-6.77l2.48-5c4.38,2.19,8.78,4.5,13.08,6.88Zm-19.42-9.95c-4.36-2.07-8.83-4.07-13.28-5.94l2.16-5.1c4.51,1.91,9,3.94,13.49,6Zm-20-8.7c-4.49-1.79-9.07-3.5-13.63-5.09l1.82-5.22c4.63,1.61,9.29,3.35,13.85,5.17Zm-20.53-7.41c-4.59-1.5-9.28-2.91-13.93-4.21l1.49-5.33c4.72,1.32,9.49,2.76,14.15,4.27ZM804,246.82l-1.67-5.27c4.68-1.48,9.46-2.88,14.19-4.15l1.44,5.34C813.33,244,808.64,245.37,804,246.82Zm186.73-5.16c-4.68-1.2-9.45-2.32-14.18-3.31l1.15-5.42c4.8,1,9.65,2.15,14.4,3.37ZM825,240.92l-1.33-5.37c4.77-1.18,9.62-2.27,14.43-3.24l1.09,5.42C834.5,238.69,829.73,239.76,825,240.92Zm144.4-4c-4.75-.9-9.58-1.71-14.36-2.4l.8-5.48c4.85.71,9.76,1.53,14.59,2.44Zm-123.06-.55-1-5.45c4.83-.87,9.74-1.65,14.6-2.31l.75,5.49C856,234.75,851.13,235.51,846.38,236.37Zm101.48-2.82c-4.79-.59-9.67-1.08-14.48-1.47l.44-5.52c4.89.4,9.84.9,14.72,1.5ZM868,233.19l-.63-5.5c4.88-.55,9.83-1,14.72-1.36l.4,5.52C877.64,232.19,872.77,232.64,868,233.19Zm58.13-1.61c-4.82-.28-9.72-.46-14.55-.54l.08-5.53c4.91.08,9.89.26,14.8.54Zm-36.38-.17-.27-5.52c4.9-.24,9.87-.38,14.78-.41l0,5.53C899.43,231,894.54,231.18,889.72,231.41Z" transform="translate(-59.19 -48.21)"/></g><g class="cls-3"><path class="cls-6" d="M910.07,887.23q-14.94,0-30-1.39A318.77,318.77,0,0,1,633.16,727.68l3.83-2.21a317.41,317.41,0,0,0,100.67,106.3,312.85,312.85,0,0,0,67.18,33.16,316.1,316.1,0,0,0,75.66,16.5,314.71,314.71,0,1,0,58.09-626.74l.41-4.41a319.15,319.15,0,0,1-28.93,637Z" transform="translate(-59.19 -48.21)"/></g><g class="cls-3"><rect class="cls-7" x="1294.88" y="887.09" width="60.56" height="3.69" transform="translate(-192.21 1488.8) rotate(-57.82)"/></g><g class="cls-3"><rect class="cls-7" x="1285.55" y="720.52" width="3.69" height="62.7" transform="translate(-216.65 1071.24) rotate(-44.56)"/></g><g class="cls-3"><rect class="cls-7" x="1219.97" y="830.7" width="81.24" height="3.69" transform="translate(-61.94 -44.03) rotate(-0.19)"/></g><g class="cls-3"><rect class="cls-7" x="1419.16" y="780.95" width="3.69" height="61.85" transform="translate(439.36 2115.51) rotate(-85.43)"/></g><g class="cls-3"><path class="cls-7" d="M1457.82,1035.49l-3.45-1.33,2.64-6.88,3.45,1.32Zm4-10.34-3.45-1.32,2.65-6.89,3.44,1.32Zm4-10.33-3.44-1.32,2.64-6.89,3.44,1.32Zm4-10.33-3.44-1.33,2.64-6.88,3.44,1.32Zm4-10.34-3.44-1.32,2.64-6.89,3.44,1.32Zm4-10.33-3.44-1.32,2.64-6.89,3.44,1.32Zm4-10.34-3.44-1.32,2.64-6.88,3.44,1.32Zm4-10.33-3.44-1.32,2.64-6.89,3.45,1.32Zm4-10.33-3.45-1.32,2.64-6.89,3.45,1.32Zm90.64-5.09-1.62-.38.46-2-.15-.06.42-1.08.09-.43h.06l1.47-3.84,3.45,1.32-2,5.34Zm-5.22-1.2-7.19-1.65.83-3.6,7.19,1.65Zm-10.78-2.47-7.19-1.65.82-3.6,7.19,1.65Zm-70.68-1.58-3.45-1.32,2.64-6.88,3.45,1.32Zm59.89-.9-7.19-1.65.82-3.59,7.2,1.64Zm-10.79-2.47-7.19-1.65.83-3.6,7.19,1.65Zm43.08-1.3-3.45-1.32,2.64-6.89,3.45,1.32Zm-53.86-1.18L1524.6,935l.82-3.59,7.19,1.65ZM1521,934.16l-7.19-1.65.83-3.6,7.19,1.65Zm-23.57-2-3.45-1.32,1.78-4.62,2.13-1.14,2.36.54-.82,3.6-.8-.19Zm12.79-.47L1503,930l.83-3.59,7.19,1.65Zm79.39-4.2-3.45-1.33,2.65-6.88,3.44,1.32Zm4-10.34-3.44-1.32,2.64-6.89,3.44,1.32Zm4-10.33-3.44-1.32,2.64-6.89,3.44,1.32Zm4-10.34-3.44-1.32,2.64-6.89,3.44,1.32Zm4-10.33-3.44-1.32,2.64-6.89,3.44,1.32Zm4-10.33-3.44-1.32,2.64-6.89,3.44,1.32Zm84.71-8.48-3.2-1.83,3.67-6.4,3.2,1.83Zm-5.42-.23-6.17-4,2-3.09,6.17,4Zm-75.33-1.63-3.44-1.32,2.64-6.89,3.44,1.32Zm66.08-4.44-6.17-4,2-3.09,6.17,4.05Zm20.17-3.3-3.2-1.83,3.67-6.4,3.2,1.84Zm-82.29-2.59-3.44-1.32,2.64-6.89,3.44,1.32Zm52.86-.18-6.17-4,2-3.09,6.17,4Zm-9.25-6.06-6.17-4,2-3.08,6.17,4Zm44.19-.76-3.2-1.84,3.67-6.4,3.2,1.84Zm-83.84-3.33-3.44-1.32,2.64-6.89,3.44,1.32Zm30.39-2-6.17-4.05,2-3.08,6.17,4Zm59-4.29-3.2-1.84,3.67-6.4,3.2,1.84Zm-68.2-1.78-6.17-4,2-3.09,6.17,4Zm-17.18-2.29-3.44-1.32,2.64-6.89,3.44,1.32Zm7.92-3.78-6.17-4,2-3.09,6.17,4.05Zm83-1.75-3.2-1.84,3.67-6.4,3.2,1.84Zm5.5-9.6-3.19-1.84,3.67-6.4,3.2,1.84Zm5.51-9.6-3.2-1.84,3.67-6.4,3.2,1.84Z" transform="translate(-59.19 -48.21)"/></g><g class="cls-3"><rect class="cls-6" x="411.56" y="1003.47" width="46.71" height="4.43" transform="translate(-462.06 251.31) rotate(-26.49)"/></g><g class="cls-3"><rect class="cls-6" x="173.71" y="990.96" width="56.23" height="4.43" transform="translate(-707.7 393.55) rotate(-45.55)"/></g><g class="cls-3"><rect class="cls-6" x="246.2" y="962.35" width="4.43" height="57.75" transform="translate(-641.45 347.84) rotate(-40.31)"/></g><g class="cls-3"><rect class="cls-6" x="437.73" y="805.33" width="4.43" height="62.83" transform="translate(-199.25 42.02) rotate(-10.11)"/></g><g class="cls-3"><rect class="cls-6" x="449.49" y="850.57" width="51.36" height="4.43" transform="translate(-502.8 474.62) rotate(-41.12)"/></g><g class="cls-3"><rect class="cls-6" x="188.02" y="921.83" width="4.43" height="41.48" transform="translate(-748.7 506.19) rotate(-54.78)"/></g><g class="cls-3"><path class="cls-7" d="M233.57,966.38,232.09,963l6.76-3,1.48,3.38ZM243.71,962l-1.48-3.38,6.76-3,1.48,3.38Zm10.14-4.43-1.48-3.38,6.76-3,1.48,3.38ZM264,953.08l-1.48-3.38,6.76-3,1.48,3.38Zm10.14-4.43-1.48-3.38,6.76-2.95,1.48,3.38Zm10.14-4.43-1.48-3.38,6.76-3,1.48,3.38Zm10.14-4.43-1.48-3.38,6.76-3,1.48,3.38Zm10.14-4.44L303.07,932l6.76-3,1.48,3.38Zm10.14-4.43-1.48-3.38,6.34-2.77,1.48,3.38Z" transform="translate(-59.19 -48.21)"/></g><g class="cls-3"><path class="cls-7" d="M440,985.48l-3.88-2.64,2.08-3.05,3.88,2.64ZM433,980.76l-6.09-4.15,2.08-3.05,6.09,4.15Zm-9.14-6.23-6.1-4.16,2.08-3,6.1,4.16Zm-9.14-6.23-6.1-4.16,2.08-3,6.09,4.16Zm-9.15-6.24-6.09-4.15,2.07-3,6.1,4.15Zm-9.14-6.23-6.1-4.16,2.08-3,6.09,4.15Zm-9.15-6.23-6.09-4.16,2.07-3.05,6.1,4.16Zm-9.14-6.24-6.1-4.15,2.08-3.05,6.1,4.16ZM369,937.13,362.93,933l2.08-3.05,6.09,4.15Z" transform="translate(-59.19 -48.21)"/></g><g class="cls-3"><path class="cls-7" d="M370,917.67l-1.64-3.31,6.61-3.28,1.64,3.31Zm9.92-4.92-1.64-3.3,6.61-3.28,1.64,3.3Zm9.91-4.91-1.64-3.31,6.61-3.28,1.64,3.31Zm9.92-4.92-1.64-3.3,6.61-3.28,1.64,3.3Zm9.91-4.91L408,894.7l6.61-3.28,1.64,3.31Zm9.92-4.92-1.64-3.31,6.61-3.27,1.63,3.3Zm9.91-4.92-1.64-3.3,1.11-.55,1.64,3.3Z" transform="translate(-59.19 -48.21)"/></g><g class="cls-3"><polygon class="cls-8" points="801.86 844.22 831.12 862.53 799 875.15 801.86 844.22"/></g><g class="cls-3"><circle class="cls-1" cx="1346.45" cy="818.91" r="38.85" transform="translate(-117.22 1485.53) rotate(-58.28)"/><path class="cls-7" d="M1393.1,784l19.8-19-2.55-2.67-19.71,18.89c.4.47.8.94,1.18,1.43Z" transform="translate(-59.19 -48.21)"/><rect class="cls-7" x="1355.68" y="753.36" width="7.38" height="3.69" transform="translate(27.07 1599.98) rotate(-64.1)"/><rect class="cls-7" x="1370.19" y="723.5" width="7.38" height="3.69" transform="translate(62.08 1596.18) rotate(-64.1)"/><path class="cls-7" d="M1354.49,761l-.17.34,1.25.18Z" transform="translate(-59.19 -48.21)"/><rect class="cls-7" x="1365.35" y="733.45" width="7.38" height="3.69" transform="translate(50.42 1597.46) rotate(-64.1)"/><rect class="cls-7" x="1360.52" y="743.41" width="7.38" height="3.69" transform="translate(38.75 1598.72) rotate(-64.1)"/><path class="cls-9" d="M1401.91,801.64c.42,1.37.8,2.75,1.12,4.16C1402.71,804.39,1402.33,803,1401.91,801.64Z" transform="translate(-59.19 -48.21)"/><path class="cls-9" d="M1403,805.8c.22.93.41,1.88.58,2.83C1403.44,807.68,1403.25,806.73,1403,805.8Z" transform="translate(-59.19 -48.21)"/><path class="cls-9" d="M1346.45,877V857.76a38.85,38.85,0,0,1,0-77.7V760.85a58.08,58.08,0,0,1,55,39.44,58,58,0,0,0-9.65-17.61c-.38-.49-.78-1-1.18-1.43a58,58,0,0,0-35.07-19.69l-1.25-.18a58.07,58.07,0,1,0,31.17,100.51,57.79,57.79,0,0,1-39,15.08Z" transform="translate(-59.19 -48.21)"/><path class="cls-8" d="M1403,805.8c-.32-1.41-.7-2.79-1.12-4.16-.14-.45-.29-.9-.44-1.35a58.08,58.08,0,0,0-55-39.44v19.21a38.85,38.85,0,1,1,0,77.7V877h.09a58.1,58.1,0,0,0,57.07-68.34C1403.44,807.68,1403.25,806.73,1403,805.8Z" transform="translate(-59.19 -48.21)"/></g><g class="cls-3"><path class="cls-9" d="M1483.39,804.52a23.67,23.67,0,1,0,23.67,23.67A23.67,23.67,0,0,0,1483.39,804.52Zm0,35.67a12,12,0,1,1,12-12A12,12,0,0,1,1483.39,840.19Z" transform="translate(-59.19 -48.21)"/></g><g class="cls-3"><g class="cls-10"><path class="cls-8" d="M1483.39,844a15.84,15.84,0,0,0,0-31.68v-7.83a23.67,23.67,0,0,1,0,47.34Z" transform="translate(-59.19 -48.21)"/></g></g><g class="cls-3"><path class="cls-5" d="M1383.6,687.69a20,20,0,1,0,20,20A20,20,0,0,0,1383.6,687.69Z" transform="translate(-59.19 -48.21)"/></g><g class="cls-3"><circle class="cls-11" cx="1269.32" cy="733.46" r="10.77" transform="translate(204.66 1752.1) rotate(-76.72)"/></g><g class="cls-3"><path class="cls-11" d="M1301.21,907.36a26,26,0,1,0,26,26A26,26,0,0,0,1301.21,907.36Z" transform="translate(-59.19 -48.21)"/><circle class="cls-11" cx="1354.07" cy="711.96" r="10.77"/><path class="cls-9" d="M1209.07,816a14.69,14.69,0,1,0,14.69,14.69A14.7,14.7,0,0,0,1209.07,816Z" transform="translate(-59.19 -48.21)"/></g><g class="cls-3"><path class="cls-4" d="M1430.37,598.07a222.54,222.54,0,0,0,21.94,34.43c1.17.06,2.34.11,3.51.14V595.69A134.52,134.52,0,0,0,1430.37,598.07Z" transform="translate(-59.19 -48.21)"/><path class="cls-4" d="M1406.09,604.81a245.55,245.55,0,0,0,28.41,25.48c2.65.52,5.33,1,8,1.3A227.45,227.45,0,0,1,1423,599.67,158.6,158.6,0,0,0,1406.09,604.81Z" transform="translate(-59.19 -48.21)"/><path class="cls-4" d="M1455.82,543.48a167.51,167.51,0,0,0-42.81,6,193.48,193.48,0,0,0,14,41.76,142.78,142.78,0,0,1,28.78-2.89Z" transform="translate(-59.19 -48.21)"/><path class="cls-4" d="M1389.24,611.89a127.23,127.23,0,0,0,28.13,13.79,235.19,235.19,0,0,1-18.6-18Q1394,609.62,1389.24,611.89Z" transform="translate(-59.19 -48.21)"/><path class="cls-4" d="M1455.82,420.58h-.47a141.91,141.91,0,0,1-26.53-2.53,253.47,253.47,0,0,0-13.06,38.11c-.32,1.27-.63,2.53-.93,3.79a169.53,169.53,0,0,0,17.67,3.67,166.78,166.78,0,0,0,23.32,1.88Z" transform="translate(-59.19 -48.21)"/><path class="cls-4" d="M1431.9,411.2a134.11,134.11,0,0,0,23.92,2.09v-38c-1.23,0-2.45.09-3.67.16A240.45,240.45,0,0,0,1431.9,411.2Z" transform="translate(-59.19 -48.21)"/><path class="cls-4" d="M1455.82,536.19V507.63h-46.93a193.61,193.61,0,0,0,2.26,31.76c.15,1,.32,2,.48,3a177.27,177.27,0,0,1,20-4.21A175,175,0,0,1,1455.82,536.19Z" transform="translate(-59.19 -48.21)"/><path class="cls-4" d="M1455.82,472.79a174,174,0,0,1-42.56-5.71,215.55,215.55,0,0,0-4.17,33.26h46.73Z" transform="translate(-59.19 -48.21)"/><path class="cls-4" d="M1401.79,500.34a222.37,222.37,0,0,1,4.44-35.26,190.25,190.25,0,0,1-28-11.11q-1.57,3.52-3,7a143.84,143.84,0,0,0-9.59,39.32Z" transform="translate(-59.19 -48.21)"/><path class="cls-4" d="M1550.48,413a130.48,130.48,0,0,0-17.75-14.85q-6.26,3.58-12.43,6.59,3,3.91,6.13,8.2a224.25,224.25,0,0,1,18.43,30.44,182,182,0,0,0,20.61-12.42A130,130,0,0,0,1550.48,413Z" transform="translate(-59.19 -48.21)"/><path class="cls-4" d="M1365.15,514.42a118.53,118.53,0,0,0,9.06,42.6,192.14,192.14,0,0,1,30.39-12.61c-.24-1.35-.47-2.71-.68-4.06a200.9,200.9,0,0,1-2.32-32.72h-36.42Q1365.07,511.05,1365.15,514.42Z" transform="translate(-59.19 -48.21)"/><path class="cls-4" d="M1434.61,377.67a240,240,0,0,0-25.91,27.43,156.52,156.52,0,0,0,15.81,4.58,255.07,255.07,0,0,1,18.22-33.32Q1438.64,376.89,1434.61,377.67Z" transform="translate(-59.19 -48.21)"/><path class="cls-4" d="M1406,551.61a185.11,185.11,0,0,0-28.83,12.09A157,157,0,0,0,1400.81,599a173,173,0,0,1,19-6A199.72,199.72,0,0,1,1406,551.61Z" transform="translate(-59.19 -48.21)"/><path class="cls-4" d="M1407.82,457.94c.3-1.28.61-2.55.94-3.83a263.06,263.06,0,0,1,12.76-37.65,166.25,166.25,0,0,1-17.58-5.31q-2.28,3-4.57,6.18a216.25,216.25,0,0,0-18.09,30A182.25,182.25,0,0,0,1407.82,457.94Z" transform="translate(-59.19 -48.21)"/><path class="cls-4" d="M1393.56,412.92q1.65-2.3,3.29-4.49-7.59-3.09-15.23-7a130.93,130.93,0,0,0-28.12,29.41A211.71,211.71,0,0,0,1374.79,444,224.45,224.45,0,0,1,1393.56,412.92Z" transform="translate(-59.19 -48.21)"/><path class="cls-4" d="M1368.5,458.23c1-2.53,2.06-5.06,3.19-7.59A219.05,219.05,0,0,1,1349.52,437a127.76,127.76,0,0,0-18.71,63.34h27.51A150.65,150.65,0,0,1,1368.5,458.23Z" transform="translate(-59.19 -48.21)"/><path class="cls-4" d="M1388.35,396.67q6.59,3.18,13.14,5.76a263.3,263.3,0,0,1,18.64-21.05A127.2,127.2,0,0,0,1388.35,396.67Z" transform="translate(-59.19 -48.21)"/><path class="cls-4" d="M1367.74,560.52a126,126,0,0,1-9.88-46c0-2.29,0-4.6,0-6.92h-27.08A127.83,127.83,0,0,0,1350,571.69Q1358.74,565.59,1367.74,560.52Z" transform="translate(-59.19 -48.21)"/><path class="cls-4" d="M1368.46,595a130.64,130.64,0,0,0,14,12.11q5.64-2.82,11.25-5.23a163,163,0,0,1-22.92-34.69q-8.49,4.81-16.78,10.59A130.23,130.23,0,0,0,1368.46,595Z" transform="translate(-59.19 -48.21)"/><path class="cls-4" d="M1467.73,632.43a224.69,224.69,0,0,0,20.86-32.35,130.79,130.79,0,0,0-23.22-4l-2.26-.16v36.71h0C1464.67,632.6,1466.2,632.53,1467.73,632.43Z" transform="translate(-59.19 -48.21)"/><path class="cls-4" d="M1517.88,611.2q-6.77,7-14.56,13.86a127.33,127.33,0,0,0,21.62-10.2C1522.58,613.57,1520.22,612.35,1517.88,611.2Z" transform="translate(-59.19 -48.21)"/><path class="cls-4" d="M1495.72,602.16a228.26,228.26,0,0,1-18.14,29.27c2.78-.39,5.55-.87,8.28-1.43a248.64,248.64,0,0,0,25-22.07A159.9,159.9,0,0,0,1495.72,602.16Z" transform="translate(-59.19 -48.21)"/><path class="cls-4" d="M1491.93,593.42a194.2,194.2,0,0,0,14.85-43q-2.35-.68-4.78-1.29a179.81,179.81,0,0,0-38.89-5.6v45.07c1,0,1.89.11,2.84.19A139.45,139.45,0,0,1,1491.93,593.42Z" transform="translate(-59.19 -48.21)"/><path class="cls-4" d="M1562.13,514.55A126.19,126.19,0,0,1,1552,561.11a179.19,179.19,0,0,1,17,10.5,127.72,127.72,0,0,0,19.09-64h-26Q1562.21,511.11,1562.13,514.55Z" transform="translate(-59.19 -48.21)"/><path class="cls-4" d="M1588.12,500.34v0a127.75,127.75,0,0,0-18.66-63.25A182.19,182.19,0,0,1,1548,450c1.24,2.75,2.41,5.5,3.48,8.24a150.65,150.65,0,0,1,10.18,42.11Z" transform="translate(-59.19 -48.21)"/><path class="cls-4" d="M1523.05,605.63c3,1.49,5.9,3.08,8.88,4.77A130.5,130.5,0,0,0,1565,577.72a179.24,179.24,0,0,0-16.06-9.91A166.53,166.53,0,0,1,1523.05,605.63Z" transform="translate(-59.19 -48.21)"/><path class="cls-4" d="M1463.11,536.26a187.49,187.49,0,0,1,41,5.91c1.38.35,2.74.72,4.09,1.1.23-1.29.45-2.58.65-3.88a193.61,193.61,0,0,0,2.26-31.76h-48Z" transform="translate(-59.19 -48.21)"/><path class="cls-4" d="M1554.35,500.34a144.2,144.2,0,0,0-9.59-39.32c-1-2.59-2.12-5.19-3.28-7.78a210.87,210.87,0,0,1-27.92,10.9,224.1,224.1,0,0,1,4.64,36.2Z" transform="translate(-59.19 -48.21)"/><path class="cls-4" d="M1554.81,507.63h-36.42a200.9,200.9,0,0,1-2.32,32.72c-.26,1.68-.55,3.35-.85,5a211.92,211.92,0,0,1,30.27,12.34,118.4,118.4,0,0,0,9.35-43.29Q1554.92,511,1554.81,507.63Z" transform="translate(-59.19 -48.21)"/><path class="cls-4" d="M1513.77,552.58a200,200,0,0,1-14.78,43,166.46,166.46,0,0,1,17.21,6.77,160.81,160.81,0,0,0,26.27-37.92A204.38,204.38,0,0,0,1513.77,552.58Z" transform="translate(-59.19 -48.21)"/><path class="cls-4" d="M1511.23,454.11,1512,457a203.43,203.43,0,0,0,26.38-10.38,215,215,0,0,0-17.72-29.28c-2.37-3.33-4.76-6.49-7.11-9.46a167.46,167.46,0,0,1-16.11,6.08A264.22,264.22,0,0,1,1511.23,454.11Z" transform="translate(-59.19 -48.21)"/><path class="cls-4" d="M1500.35,381.88c4.33,4.41,9.62,10.13,15.28,17q5.07-2.42,10.19-5.23A127.28,127.28,0,0,0,1500.35,381.88Z" transform="translate(-59.19 -48.21)"/><path class="cls-4" d="M1465.37,412.9a130.3,130.3,0,0,0,21.81-3.63,239.52,239.52,0,0,0-19.29-33.71c-1.59-.1-3.18-.18-4.78-.23v37.73Z" transform="translate(-59.19 -48.21)"/><path class="cls-4" d="M1508.71,402a235.23,235.23,0,0,0-23-24q-4.12-.85-8.33-1.44a255.24,255.24,0,0,1,17,30.74Q1501.5,405,1508.71,402Z" transform="translate(-59.19 -48.21)"/><path class="cls-4" d="M1463.11,420.36v45.07a179.89,179.89,0,0,0,38.89-5.6c1-.25,2-.52,2.94-.78-.23-1-.47-1.93-.71-2.89a253.61,253.61,0,0,0-14-40.15,139.21,139.21,0,0,1-24.32,4.16C1465,420.24,1464.06,420.31,1463.11,420.36Z" transform="translate(-59.19 -48.21)"/><path class="cls-4" d="M1463.11,472.72v27.62h47.79a216.8,216.8,0,0,0-4.36-34.17l-2.44.65A186.87,186.87,0,0,1,1463.11,472.72Z" transform="translate(-59.19 -48.21)"/></g><g class="cls-3"><g class="cls-12"><path class="cls-9" d="M1424.53,432.51a19.45,19.45,0,0,1,0-38.9Z" transform="translate(-59.19 -48.21)"/></g></g><g class="cls-3"><g class="cls-13"><path class="cls-9" d="M1382.16,630.17a13.31,13.31,0,0,1,0-26.62Z" transform="translate(-59.19 -48.21)"/></g></g><g class="cls-3"><g class="cls-14"><path class="cls-9" d="M1572.77,447.69a13,13,0,0,1,0-26Z" transform="translate(-59.19 -48.21)"/></g></g><g class="cls-3"><path class="cls-9" d="M1575.5,548A29.45,29.45,0,1,0,1605,577.45,29.46,29.46,0,0,0,1575.5,548Zm0,44.38a14.93,14.93,0,1,1,14.93-14.93A14.93,14.93,0,0,1,1575.5,592.38Z" transform="translate(-59.19 -48.21)"/></g><g class="cls-3"><g class="cls-15"><path class="cls-8" d="M1575.5,597.16a19.71,19.71,0,1,1,0-39.41V548a29.45,29.45,0,0,0,0,58.9Z" transform="translate(-59.19 -48.21)"/></g></g><g class="cls-3"><path class="cls-7" d="M1342.51,485.93l-2-2.21,5.52-4.9,2,2.21Zm8.28-7.35-2-2.2,5.52-4.9,2,2.21Zm8.28-7.34-2-2.21,5.52-4.9,2,2.21Zm8.27-7.35-1.95-2.2,5.51-4.9,2,2.21Zm8.28-7.34-2-2.21,5.52-4.89,2,2.2Zm8.28-7.34-2-2.21,5.52-4.9,2,2.21Zm8.28-7.35-2-2.21,5.52-4.89,2,2.2Zm8.28-7.34-2-2.21,5.52-4.9,2,2.21Zm8.27-7.35-2-2.21,1.33-1.18,2,2.21Z" transform="translate(-59.19 -48.21)"/></g><g class="cls-3"><path class="cls-7" d="M1585,585.31l-12.21-4.53,1-2.6-4.11-4.14,2.1-2.08,5.19,5.23-1.45,1.45,3.81,1.41.24-.24Zm-15.66-5.81-6.92-2.57,1-2.76,6.91,2.56ZM1559,575.65l-6.92-2.56,1-2.77,6.92,2.56Zm-10.38-3.85-6.91-2.56,1-2.77,6.92,2.57Zm18.48-.38-5.2-5.24,2.09-2.08,5.2,5.24ZM1538.2,568l-6.92-2.56,1-2.77,6.92,2.57Zm-10.38-3.85-6.91-2.56,1-2.77,6.92,2.57Zm31.43-.54-5.2-5.23,2.1-2.08,5.19,5.24Zm-41.8-3.3-6.92-2.57,1-2.77,6.91,2.57Zm-10.38-3.85-6.91-2.57,1-2.77,6.92,2.57Zm44.38-.7-5.19-5.24,2.09-2.08,5.2,5.24Zm-54.75-3.15-6.92-2.57,1-2.76,6.91,2.56Zm-10.38-3.85-6.29-2.33,1-2.77,6.29,2.33Zm57.34-.85-5.2-5.24,2.09-2.08,5.2,5.24Zm-7.8-7.86-5.2-5.24,2.1-2.07,5.2,5.23Zm-7.79-7.85-5.2-5.24,2.09-2.08,5.2,5.24Zm-7.8-7.86-5.2-5.23,2.1-2.08,5.19,5.23Zm-7.8-7.85-5.19-5.24,2.09-2.08,5.2,5.24Zm-7.79-7.86-5.2-5.23,2.1-2.08,5.19,5.23Zm-7.8-7.85-5.19-5.24,2.09-2.08,5.2,5.24Zm-7.79-7.86-5.2-5.23,2.09-2.08,5.2,5.23Zm-7.8-7.85-5.2-5.24,2.1-2.08,5.2,5.24Zm-7.79-7.86-5.2-5.23,2.09-2.08,5.2,5.24Zm-7.8-7.85-5.2-5.24,2.1-2.08,5.19,5.24Zm-7.8-7.85-5.19-5.24,2.09-2.08,5.2,5.24Zm-7.79-7.86-5.2-5.24,2.1-2.07,5.19,5.23Zm-7.8-7.85-5.19-5.24,2.09-2.08,5.2,5.24Zm-7.79-7.86-5.2-5.23,2.09-2.08,5.2,5.23Z" transform="translate(-59.19 -48.21)"/></g><g class="cls-3"><rect class="cls-7" x="1394.29" y="602.37" width="4.72" height="2.95" transform="translate(-88 1087.92) rotate(-43.86)"/></g><g class="cls-3"><path class="cls-7" d="M1403.05,599.74l-2-2.13,5.76-5.53,2,2.12Zm8.63-8.3-2-2.13,5.76-5.53,2,2.12Zm8.64-8.3-2-2.13,5.75-5.53,2,2.12Zm8.64-8.3-2-2.13,5.76-5.53,2,2.12Zm8.63-8.3-2-2.13,5.76-5.53,2,2.12Zm8.64-8.3-2-2.13,5.76-5.53,2,2.12Zm8.64-8.3-2-2.13,1.56-1.49,2,2.12Z" transform="translate(-59.19 -48.21)"/></g><g class="cls-3"><rect class="cls-7" x="1456.58" y="542.5" width="4.72" height="2.95" transform="translate(-29.09 1114.52) rotate(-43.86)"/></g><g class="cls-3"><path class="cls-7" d="M1451,538l-3.49-1,.81-2.83,3.49,1Zm-7-2-7.09-2,.81-2.84,7.09,2Zm-10.64-3-7.09-2,.81-2.84,7.09,2Zm-10.64-3.05-7.09-2,.81-2.83,7.09,2Zm-10.64-3-7.09-2,.81-2.84,7.09,2Zm-10.64-3-7.09-2,.81-2.84,7.09,2Zm-10.64-3-7.09-2,.81-2.84,7.09,2Zm-10.64-3-7.09-2,.81-2.83,7.09,2Zm-10.64-3-7.09-2,.81-2.84,7.09,2Zm-10.64-3-7.09-2,.81-2.84,7.09,2Zm-10.64-3.05-7.09-2,.81-2.84,7.09,2Z" transform="translate(-59.19 -48.21)"/></g><g class="cls-3"><path class="cls-7" d="M1553.81,438.84l-2.09-.46.64-2.89,2.09.47Zm-5.69-1.26-7.2-1.59.63-2.88,7.21,1.59Zm-10.81-2.39-7.2-1.59.64-2.88,7.2,1.59Zm-10.8-2.39-7.21-1.59.64-2.88,7.21,1.59Zm-10.81-2.38-7.2-1.6.64-2.88,7.2,1.6ZM1504.9,428l-7.21-1.59.64-2.88,7.2,1.59Zm-10.81-2.39-7.2-1.59.63-2.88,7.21,1.59Zm-10.8-2.39-7.21-1.59.64-2.88,7.2,1.59Zm-10.81-2.38-7.2-1.6.63-2.88,7.21,1.59Zm-10.81-2.39-7.2-1.59.64-2.89,7.2,1.6Zm-10.8-2.39-7.21-1.59.64-2.88,7.21,1.59Z" transform="translate(-59.19 -48.21)"/></g><g class="cls-3"><path class="cls-7" d="M1342,506.58l-.84-2.83,7.08-2.09.83,2.83Zm10.61-3.13-.83-2.83,7.07-2.09.84,2.83Zm10.62-3.14-.84-2.83,7.08-2.09.83,2.84Zm10.61-3.13-.84-2.83,7.08-2.09.83,2.83Zm10.61-3.13-.83-2.83,7.07-2.09.84,2.83Zm10.62-3.14-.84-2.83,7.08-2.09.83,2.83Zm10.61-3.13-.84-2.83,7.08-2.09.83,2.83Zm10.61-3.14-.83-2.83,7.07-2.09.84,2.83Zm10.62-3.13-.84-2.83,7.08-2.09.83,2.83Zm10.61-3.13-.84-2.83,7.08-2.09.84,2.83Zm10.61-3.14-.83-2.83,7.07-2.09.84,2.83Zm10.62-3.13-.84-2.83,7.08-2.09.83,2.83Zm10.61-3.14-.84-2.83,7.08-2.09.84,2.83Zm10.61-3.13-.83-2.83,7.07-2.09.84,2.83Zm10.62-3.13-.84-2.84,7.08-2.08.83,2.83Zm10.61-3.14-.84-2.83,7.08-2.09.84,2.83Zm10.61-3.13-.83-2.83,7.07-2.09.84,2.83Zm10.62-3.14-.84-2.83,7.08-2.09.83,2.83Zm10.61-3.13-.84-2.83,7.08-2.09.84,2.83ZM1543.6,447l-.83-2.83,7.07-2.09.84,2.84Zm10.62-3.13-.84-2.83,6-1.77.83,2.83Z" transform="translate(-59.19 -48.21)"/></g><g class="cls-3"><path class="cls-9" d="M1424.53,393.61A19.45,19.45,0,1,0,1444,413.06,19.45,19.45,0,0,0,1424.53,393.61Z" transform="translate(-59.19 -48.21)"/><path class="cls-9" d="M1382.16,603.55a13.31,13.31,0,1,0,13.32,13.31A13.31,13.31,0,0,0,1382.16,603.55Z" transform="translate(-59.19 -48.21)"/><path class="cls-9" d="M1572.77,421.72a13,13,0,1,0,13,13A13,13,0,0,0,1572.77,421.72Z" transform="translate(-59.19 -48.21)"/><path class="cls-8" d="M1465.94,522.39a17.44,17.44,0,1,0,17.43,17.43A17.44,17.44,0,0,0,1465.94,522.39Z" transform="translate(-59.19 -48.21)"/><path class="cls-5" d="M1325.17,482A21.83,21.83,0,1,0,1347,503.84,21.83,21.83,0,0,0,1325.17,482Z" transform="translate(-59.19 -48.21)"/></g><g class="cls-3"><g class="cls-16"><path class="cls-17" d="M1325.17,525.81a21.82,21.82,0,1,1,0-43.64Z" transform="translate(-59.19 -48.21)"/></g></g><g class="cls-3"><path class="cls-18" d="M1452.42,1025.37a10.14,10.14,0,1,0,13.13,5.78A10.15,10.15,0,0,0,1452.42,1025.37Z" transform="translate(-59.19 -48.21)"/><path class="cls-11" d="M1492.54,918.37a10.14,10.14,0,1,0,13.13,5.78A10.15,10.15,0,0,0,1492.54,918.37Z" transform="translate(-59.19 -48.21)"/><path class="cls-11" d="M1576.3,935.68a10.14,10.14,0,1,0,13.13,5.78A10.15,10.15,0,0,0,1576.3,935.68Z" transform="translate(-59.19 -48.21)"/><path class="cls-5" d="M1623.42,815.05a10.14,10.14,0,1,0,13.13,5.78A10.15,10.15,0,0,0,1623.42,815.05Z" transform="translate(-59.19 -48.21)"/><path class="cls-11" d="M1701.14,862.38a10.14,10.14,0,1,0-5.77,13.13A10.14,10.14,0,0,0,1701.14,862.38Z" transform="translate(-59.19 -48.21)"/></g><path class="cls-19" d="M1738.75,798.74a10.15,10.15,0,1,0-5.77,13.14A10.13,10.13,0,0,0,1738.75,798.74Z" transform="translate(-59.19 -48.21)"/><g class="cls-3"><polygon class="cls-5" points="1605.91 570.4 1593.96 578.17 1601.97 582.43 1566.79 648.47 1526.06 626.77 1480.71 711.89 1489.03 716.32 1529.95 639.52 1569.66 660.68 1570.68 661.22 1610.29 586.87 1618.31 591.14 1618.09 576.89 1617.86 562.64 1605.91 570.4"/></g><g class="cls-3"><rect class="cls-9" x="205.22" y="957.79" width="23.9" height="23.9"/></g><g class="cls-3"><rect class="cls-9" x="362.37" y="738.2" width="23.9" height="23.89"/></g><g class="cls-3"><rect class="cls-9" x="421.2" y="774.09" width="23.89" height="23.9"/></g><g class="cls-3"><rect class="cls-9" x="391.37" y="1009.48" width="23.9" height="23.89" transform="translate(-472.39 238.86) rotate(-26.49)"/></g><g class="cls-3"><rect class="cls-9" x="107.33" y="957.79" width="23.9" height="23.9"/></g><g class="cls-3"><rect class="cls-9" x="102.15" y="866.31" width="23.9" height="23.9"/></g><path class="cls-20" d="M357.76,905.86a24.34,24.34,0,1,0-28.85,0,27.94,27.94,0,0,0-17.78,26v17.46h64.41V931.88A27.93,27.93,0,0,0,357.76,905.86Z" transform="translate(-59.19 -48.21)"/><g class="cls-3"><circle class="cls-5" cx="224.61" cy="964.69" r="22.12" transform="translate(-822.72 984.77) rotate(-80.85)"/></g><g class="cls-3"><circle class="cls-5" cx="386.26" cy="830.67" r="22.12"/></g><g class="cls-3"><circle class="cls-5" cx="455.37" cy="986.81" r="22.12" transform="translate(-443.36 248.43) rotate(-25.81)"/></g><g class="cls-3"><polygon class="cls-4" points="784.61 17.03 659.15 17.03 659.15 105 723.87 105 761.25 145.93 751.64 105 784.61 105 784.61 17.03"/></g><g class="cls-3"><path class="cls-21" d="M694.85,96.21c-37.51,0-67.91,21-67.91,47,0,18.12,14.85,33.85,36.59,41.67l-6.91,39,26.48-34.45a98.24,98.24,0,0,0,11.75.7c37.5,0,67.91-21,67.91-47S732.35,96.21,694.85,96.21Z" transform="translate(-59.19 -48.21)"/><path class="cls-7" d="M653.49,231l8-44.93c-22.47-8.56-36.36-24.88-36.36-42.87,0-13.16,7.35-25.49,20.69-34.71,13.13-9.08,30.56-14.08,49.07-14.08s35.93,5,49.07,14.08c13.34,9.22,20.68,21.55,20.68,34.71s-7.34,25.5-20.68,34.72C730.78,187,713.36,192,694.85,192a99.22,99.22,0,0,1-10.92-.6Zm41.36-132.9c-36.43,0-66.07,20.23-66.07,45.1,0,16.78,13.56,32.08,35.38,39.94l1.46.52-5.87,33.14,22.53-29.3,1,.12a96.06,96.06,0,0,0,11.53.69c36.43,0,66.06-20.23,66.06-45.11S731.28,98.06,694.85,98.06Z" transform="translate(-59.19 -48.21)"/></g><g class="cls-3"><rect class="cls-7" x="591.6" y="75.25" width="88.11" height="3.69"/></g><g class="cls-3"><rect class="cls-7" x="591.6" y="92.62" width="88.11" height="3.69"/></g><g class="cls-3"><rect class="cls-7" x="591.6" y="109.99" width="88.11" height="3.69"/></g><g class="cls-3"><path class="cls-7" d="M1100.25,70.79a77.1,77.1,0,1,0,22.58,54.51A76.59,76.59,0,0,0,1100.25,70.79Zm-51.69,125.9V184.47h-5.65v12.22a71.53,71.53,0,0,1-68.56-68.56h12.21v-5.65H974.35a71.52,71.52,0,0,1,68.56-68.56V66.13h5.65V53.92a71.53,71.53,0,0,1,68.56,68.56H1104.9v5.65h12.22A71.53,71.53,0,0,1,1048.56,196.69Z" transform="translate(-59.19 -48.21)"/><polygon class="cls-7" points="989.36 27.11 983.72 27.11 983.72 79.92 1008.46 79.92 1008.46 74.27 989.36 74.27 989.36 27.11"/></g><g class="cls-3"><path class="cls-5" d="M1698.6,363.61a42.15,42.15,0,0,0-29.43,11.93l29.43,30.38Z" transform="translate(-59.19 -48.21)"/></g><g class="cls-3"><path class="cls-11" d="M1667.3,387a42.29,42.29,0,0,0-5.08,54.86l34.52-24.47Z" transform="translate(-59.19 -48.21)"/></g><g class="cls-3"><path class="cls-4" d="M1749.25,419.23a42.44,42.44,0,0,0-.38-5.56c-.09-.69-.2-1.38-.32-2.06a42,42,0,0,0-1-4.33q-.26-.91-.57-1.8c-.44-1.31-1-2.59-1.51-3.84-.25-.54-.5-1.08-.77-1.61-.59-1.17-1.23-2.32-1.92-3.43q-.45-.74-.93-1.44c-.8-1.18-1.66-2.31-2.56-3.39-.36-.43-.73-.86-1.1-1.28-.85-.93-1.74-1.83-2.66-2.69-.41-.38-.83-.76-1.26-1.12-1-.83-2-1.62-3-2.36-.46-.34-.92-.66-1.4-1-1.08-.71-2.2-1.39-3.34-2-.52-.27-1-.54-1.57-.8a44,44,0,0,0-4.18-1.77c-.59-.21-1.18-.42-1.78-.6a40.75,40.75,0,0,0-4.25-1.1c-.67-.14-1.34-.26-2-.36a43.58,43.58,0,0,0-4.88-.47c-.58,0-1.15,0-1.73,0a.85.85,0,0,0-.85.84v41.89l-3,2.11-8.16,5.79-18.38,13-4.63,3.29a.81.81,0,0,0-.34.54.83.83,0,0,0,.14.63l.16.21c.75,1,1.55,2,2.37,3,.37.42.74.85,1.12,1.26q1.31,1.38,2.7,2.64c.42.38.85.75,1.28,1.11,1.09.9,2.21,1.77,3.38,2.56.48.32,1,.62,1.46.92,1.11.69,2.25,1.34,3.43,1.93l1.6.77c1.26.56,2.54,1.06,3.85,1.5.6.2,1.2.4,1.8.57a39.76,39.76,0,0,0,4.31,1c.69.13,1.38.23,2.07.32a42.67,42.67,0,0,0,5.56.38h.12c.77,0,1.55,0,2.31-.07a42.61,42.61,0,0,0,6.13-.77c1.06-.21,2.1-.46,3.13-.75a42.86,42.86,0,0,0,9-3.62,43.48,43.48,0,0,0,8-5.59,41.36,41.36,0,0,0,3.86-3.86,42.66,42.66,0,0,0,9.21-16.93c.28-1,.54-2.07.75-3.13a42.65,42.65,0,0,0,.77-6.12c0-.77.06-1.54.06-2.32Z" transform="translate(-59.19 -48.21)"/></g><path class="cls-22" d="M750.33,505.3a32,32,0,1,0,32,32A32,32,0,0,0,750.33,505.3Z" transform="translate(-59.19 -48.21)"/><g class="cls-23"><g class="cls-24"><path class="cls-25" d="M750.33,569.26a32,32,0,0,1,0-64Z" transform="translate(-59.19 -48.21)"/></g></g><g class="cls-3"><path class="cls-25" d="M251.1,170.42a32,32,0,1,0,32,32A32,32,0,0,0,251.1,170.42Z" transform="translate(-59.19 -48.21)"/></g><g class="cls-23"><g class="cls-26"><path class="cls-25" d="M251.1,234.38a32,32,0,1,1,0-64Z" transform="translate(-59.19 -48.21)"/></g></g><g class="cls-3"><path class="cls-25" d="M779.83,963.29a32,32,0,1,0,32,32A32,32,0,0,0,779.83,963.29Z" transform="translate(-59.19 -48.21)"/></g><g class="cls-23"><g class="cls-27"><path class="cls-25" d="M779.83,1027.25a32,32,0,1,1,0-64Z" transform="translate(-59.19 -48.21)"/></g></g><g class="cls-3"><path class="cls-25" d="M144.93,822.3a14.45,14.45,0,1,0,14.44,14.44A14.45,14.45,0,0,0,144.93,822.3Z" transform="translate(-59.19 -48.21)"/></g><g class="cls-23"><g class="cls-28"><path class="cls-25" d="M144.93,851.19a14.45,14.45,0,1,1,0-28.89Z" transform="translate(-59.19 -48.21)"/></g></g><g class="cls-3"><path class="cls-25" d="M580,128.23a14.44,14.44,0,1,0,14.45,14.44A14.44,14.44,0,0,0,580,128.23Z" transform="translate(-59.19 -48.21)"/></g><g class="cls-23"><g class="cls-29"><path class="cls-25" d="M580,157.11a14.44,14.44,0,0,1,0-28.88Z" transform="translate(-59.19 -48.21)"/></g></g><g class="cls-3"><path class="cls-25" d="M332.82,360.89a14.45,14.45,0,1,0,14.44,14.44A14.45,14.45,0,0,0,332.82,360.89Z" transform="translate(-59.19 -48.21)"/></g><g class="cls-23"><g class="cls-30"><path class="cls-25" d="M332.82,389.78a14.45,14.45,0,1,1,0-28.89Z" transform="translate(-59.19 -48.21)"/></g></g><g class="cls-3"><path class="cls-25" d="M1701.84,522.15a14.45,14.45,0,1,0,14.44,14.44A14.45,14.45,0,0,0,1701.84,522.15Z" transform="translate(-59.19 -48.21)"/></g><g class="cls-23"><g class="cls-31"><path class="cls-25" d="M1701.84,551a14.45,14.45,0,1,1,0-28.89Z" transform="translate(-59.19 -48.21)"/></g></g><g class="cls-3"><path class="cls-25" d="M1701.84,113.68a14.45,14.45,0,1,0,14.44,14.45A14.44,14.44,0,0,0,1701.84,113.68Z" transform="translate(-59.19 -48.21)"/></g><g class="cls-23"><g class="cls-32"><path class="cls-25" d="M1701.84,142.57a14.45,14.45,0,0,1,0-28.89Z" transform="translate(-59.19 -48.21)"/></g></g></g></g></svg>