<?xml version="1.0" encoding="utf-8"?>
<!-- Generator: Adobe Illustrator 22.0.0, SVG Export Plug-In . SVG Version: 6.00 Build 0)  -->
<svg version="1.1" id="Capa_1" xmlns="http://www.w3.org/2000/svg" xmlns:xlink="http://www.w3.org/1999/xlink" x="0px" y="0px"
	 viewBox="0 0 63.5 67" style="enable-background:new 0 0 63.5 67;" xml:space="preserve">
<style type="text/css">
	.st0{fill:#66CC66;}
</style>
<title>sign-in</title>
<path class="st0" d="M63.5,33c0-1.1-0.9-2-2-2H23.1l8.5-8.3c0.8-0.7,0.8-1.9,0.1-2.7c0,0,0,0-0.1-0.1c-0.8-0.8-2-0.8-2.8,0
	c0,0,0,0,0,0L16,32.8c-0.4,0.4-0.6,0.9-0.6,1.4c0,0.5,0.2,1,0.6,1.4l12.8,12.8c0.4,0.4,0.9,0.6,1.4,0.6c0.5,0,1-0.2,1.4-0.6
	c0.8-0.9,0.8-2.1,0-3L21.3,35h40.2C62.6,35,63.5,34.1,63.5,33z"/>
<path class="st0" d="M44,59.3V47.4c0-1.1-0.9-2-2-2s-2,0.9-2,2v11.9c0,2.7-2,3.7-4.5,3.7h-26C7.1,63,4,62.1,4,59.3V9.5
	C4.2,6.6,6.5,4.3,9.5,4h26C38,4,40,6.9,40,9.5v11.8c0,1.1,0.9,2,2,2s2-0.9,2-2V9.5C44,4.7,40.3,0,35.5,0h-26C4.7,0,0,4.7,0,9.5v49.7
	C0,63.9,4.3,67,9.5,67h26C40.6,67,44,63.9,44,59.3z"/>
</svg>
