<svg id="Objects" xmlns="http://www.w3.org/2000/svg" viewBox="0 0 712.84 687.7"><defs><style>.cls-1{fill:#dcdcdb;}.cls-2{fill:#4674b7;}.cls-3{fill:#5ba59b;}.cls-4{fill:#6d6e70;}.cls-5{fill:#e6e6e6;}</style></defs><title>taskTableBG</title><path class="cls-1" d="M626.94,511.56a86.67,86.67,0,1,1,61.29-25.39A86.12,86.12,0,0,1,626.94,511.56Zm0-167.45a80.78,80.78,0,1,0,57.11,23.66A80.24,80.24,0,0,0,626.94,344.11Z" transform="translate(-540.26 -225.48)"/><path class="cls-1" d="M1051.93,814.79H764.1L620.19,565.53,764.1,316.26h287.83l143.91,249.27ZM776.88,792.66h262.27l131.13-227.13L1039.15,338.4H776.88L645.74,565.53Z" transform="translate(-540.26 -225.48)"/><path class="cls-1" d="M1064.07,835.83H752L595.89,565.53l1.07-1.85L752,295.23h312.12l156.06,270.3Zm-307.86-7.38h303.6l151.8-262.92L1059.81,302.6H756.21L604.41,565.53Z" transform="translate(-540.26 -225.48)"/><path class="cls-2" d="M877.56,913.18a346.31,346.31,0,0,1-313.13-377.1,348.16,348.16,0,0,1,17.3-80.8,345.53,345.53,0,0,1,83.94-133.51,349.09,349.09,0,0,1,61.64-48.55l2.91,4.7A342.5,342.5,0,0,0,621,386.1a339.33,339.33,0,0,0-34,71,343,343,0,0,0-17,79.52A340.77,340.77,0,0,0,878.07,907.67Z" transform="translate(-540.26 -225.48)"/><path class="cls-3" d="M1204.77,748.55l-4.76-2.81c2.45-4.16,4.85-8.43,7.13-12.69l4.88,2.61C1209.71,740,1207.27,744.32,1204.77,748.55Zm10.66-19.44-4.93-2.51c2.18-4.3,4.31-8.71,6.31-13.11l5,2.3C1219.81,720.26,1217.65,724.74,1215.43,729.11Zm9.41-20.08-5.09-2.19c1.91-4.44,3.75-9,5.47-13.48l5.17,2C1228.64,699.91,1226.78,704.52,1224.84,709Zm8.11-20.64-5.22-1.86c1.62-4.55,3.17-9.19,4.6-13.8l5.28,1.63C1236.16,679.05,1234.59,683.77,1233,688.39Zm6.77-21.12-5.32-1.52c1.33-4.64,2.58-9.37,3.71-14.07l5.38,1.3C1242.34,657.75,1241.07,662.56,1239.72,667.27Zm5.42-21.5-5.4-1.18c1-4.72,2-9.52,2.8-14.28l5.45,1C1247.15,636.09,1246.19,641,1245.14,645.77Zm4-21.81-5.47-.83c.72-4.77,1.36-9.63,1.88-14.43l5.5.6C1250.56,614.18,1249.92,619.11,1249.18,624Zm2.63-22-5.52-.48c.42-4.81.74-9.7,1-14.52l5.53.24C1252.56,592.08,1252.23,597.05,1251.81,601.94Zm1.2-22.15-5.53-.12c.06-2.5.09-5,.09-7.54,0-2.32,0-4.68-.08-7L1253,565c0,2.37.07,4.77.07,7.13C1253.1,574.68,1253.07,577.25,1253,579.79Zm-5.75-21.95c-.2-4.82-.51-9.7-.92-14.51l5.51-.47c.42,4.88.74,9.85.94,14.75Zm-1.62-21.75c-.51-4.8-1.14-9.66-1.86-14.43l5.47-.83c.73,4.86,1.37,9.79,1.89,14.67Zm-3-21.61c-.82-4.76-1.76-9.56-2.78-14.28l5.4-1.18c1,4.8,2,9.68,2.83,14.51Zm-4.4-21.38c-1.13-4.69-2.37-9.43-3.69-14.07l5.32-1.52c1.34,4.72,2.6,9.53,3.75,14.3Zm-5.76-21.05c-1.42-4.6-3-9.25-4.57-13.81l5.21-1.85c1.64,4.64,3.21,9.36,4.65,14Zm-7.08-20.64c-1.71-4.53-3.54-9.07-5.43-13.5l5.09-2.17c1.92,4.5,3.78,9.11,5.52,13.71ZM1217,431.25c-2-4.4-4.1-8.82-6.27-13.12l4.94-2.49c2.21,4.37,4.35,8.86,6.37,13.33Zm-9.62-19.58c-2.26-4.26-4.65-8.53-7.1-12.69l4.77-2.81c2.49,4.23,4.92,8.57,7.22,12.9Zm-10.85-18.93c-2.53-4.1-5.19-8.21-7.9-12.21l4.58-3.1c2.75,4.06,5.45,8.23,8,12.41Zm-12-18.18c-2.79-3.93-5.7-7.85-8.66-11.66l4.37-3.39c3,3.87,6,7.85,8.8,11.84Zm-13.16-17.33c-3-3.75-6.2-7.48-9.39-11.08l4.14-3.67c3.25,3.67,6.46,7.45,9.54,11.26Zm-14.25-16.46c-3.27-3.54-6.67-7.06-10.09-10.46l3.9-3.92c3.48,3.45,6.93,7,10.25,10.62Zm-15.29-15.52c-3.49-3.32-7.1-6.61-10.74-9.79l3.64-4.17c3.7,3.23,7.37,6.58,10.91,9.95Zm-16.26-14.51c-3.69-3.09-7.51-6.15-11.34-9.08l3.37-4.4c3.89,3,7.77,6.09,11.52,9.24ZM1108.4,297.3c-3.89-2.86-7.9-5.67-11.9-8.35l3.08-4.6c4.07,2.73,8.14,5.58,12.09,8.49Zm-18-12.33c-4.06-2.6-8.24-5.15-12.41-7.58l2.78-4.78c4.24,2.47,8.49,5.06,12.62,7.7Zm-18.73-11.16c-4.23-2.34-8.56-4.62-12.88-6.77l2.48-5c4.38,2.19,8.78,4.5,13.08,6.88Zm-19.42-9.95c-4.36-2.07-8.83-4.07-13.28-5.94l2.16-5.1c4.51,1.91,9,3.94,13.49,6Zm-20-8.7c-4.49-1.79-9.07-3.5-13.63-5.09l1.82-5.22c4.63,1.61,9.29,3.35,13.85,5.17Zm-20.53-7.41c-4.59-1.5-9.28-2.91-13.93-4.21l1.49-5.33c4.72,1.32,9.49,2.76,14.15,4.27ZM804,246.82l-1.67-5.27c4.68-1.48,9.46-2.88,14.19-4.15l1.44,5.34C813.33,244,808.64,245.37,804,246.82Zm186.73-5.16c-4.68-1.2-9.45-2.32-14.18-3.31l1.15-5.42c4.8,1,9.65,2.15,14.4,3.37ZM825,240.92l-1.33-5.37c4.77-1.18,9.62-2.27,14.43-3.24l1.09,5.42C834.5,238.69,829.73,239.76,825,240.92Zm144.4-4c-4.75-.9-9.58-1.71-14.36-2.4l.8-5.48c4.85.71,9.76,1.53,14.59,2.44Zm-123.06-.55-1-5.45c4.83-.87,9.74-1.65,14.6-2.31l.75,5.49C856,234.75,851.13,235.51,846.38,236.37Zm101.48-2.82c-4.79-.59-9.67-1.08-14.48-1.47l.44-5.52c4.89.4,9.84.9,14.72,1.5ZM868,233.19l-.63-5.5c4.88-.55,9.83-1,14.72-1.36l.4,5.52C877.64,232.19,872.77,232.64,868,233.19Zm58.13-1.61c-4.82-.28-9.72-.46-14.55-.54l.08-5.53c4.91.08,9.89.26,14.8.54Zm-36.38-.17-.27-5.52c4.9-.24,9.87-.38,14.78-.41l0,5.53C899.43,231,894.54,231.18,889.72,231.41Z" transform="translate(-540.26 -225.48)"/><path class="cls-4" d="M910.07,887.23q-14.94,0-30-1.39A318.77,318.77,0,0,1,633.16,727.68l3.83-2.21a317.41,317.41,0,0,0,100.67,106.3,312.85,312.85,0,0,0,67.18,33.16,316.1,316.1,0,0,0,75.66,16.5,314.71,314.71,0,1,0,58.09-626.74l.41-4.41a319.15,319.15,0,0,1-28.93,637Z" transform="translate(-540.26 -225.48)"/><path class="cls-1" d="M965.43,554.86a96.89,96.89,0,1,0-114.83,0,111.23,111.23,0,0,0-70.77,103.6V728H1036.2v-69.5A111.25,111.25,0,0,0,965.43,554.86Z" transform="translate(-540.26 -225.48)"/><polygon class="cls-3" points="397.62 361.86 382.68 328.55 352.82 328.55 337.88 361.86 352.82 395.17 337.88 499.13 365.46 546.31 370.04 546.31 397.62 499.13 382.68 395.17 397.62 361.86"/><path class="cls-5" d="M750.33,505.3a32,32,0,1,0,32,32A32,32,0,0,0,750.33,505.3Z" transform="translate(-540.26 -225.48)"/></svg>